<?xml version="1.0" encoding="UTF-8"?>
<svg version="1.1" xmlns="http://www.w3.org/2000/svg" width="500" height="500">
<path d="M0 0 C3.42312577 3.12151702 6.72747486 6.34644226 10 9.625 C11.31037231 10.93670166 11.31037231 10.93670166 12.6472168 12.27490234 C19.31055878 19.06082144 24.84093945 26.04385843 30 34 C31.14273629 35.5439637 32.28841255 37.08575727 33.4375 38.625 C64.02080856 82.92054314 71.53674216 135.68290663 64 188 C63.89848633 188.7312207 63.79697266 189.46244141 63.69238281 190.21582031 C58.88585758 223.32181692 41.84375028 254.30750915 21.41210938 280.203125 C20.16715392 281.78730068 18.94862378 283.39216713 17.734375 285 C16.87585938 285.99 16.87585938 285.99 16 287 C15.34 287 14.68 287 14 287 C13.73372803 287.59006836 13.46745605 288.18013672 13.19311523 288.78808594 C11.16927233 292.54008444 8.06951798 295.26772962 5.0625 298.25 C4.38662842 298.92240723 3.71075684 299.59481445 3.0144043 300.28759766 C-2.29058004 305.47885439 -7.8713964 309.81897014 -14 314 C-16.02639639 315.53434714 -18.04708403 317.07625795 -20.0625 318.625 C-60.39319452 348.7447426 -115.36498121 359.3394844 -164.65087891 352.35498047 C-187.67780056 348.87533548 -208.27780116 341.55082924 -229 331 C-230.09054688 330.4534375 -231.18109375 329.906875 -232.3046875 329.34375 C-244.4413434 323.01158171 -255.27548359 314.43681386 -266 306 C-266.9075 305.29488281 -267.815 304.58976562 -268.75 303.86328125 C-271.23371722 301.80645292 -272.98924576 299.5134428 -275 297 C-275.804375 296.360625 -276.60875 295.72125 -277.4375 295.0625 C-280.41501379 292.66596451 -282.58578299 289.95741583 -285 287 C-285.72574219 286.30648438 -286.45148438 285.61296875 -287.19921875 284.8984375 C-297.64305447 274.55312853 -306.4230273 261.08554215 -313 248 C-313.53633057 246.94377441 -313.53633057 246.94377441 -314.08349609 245.86621094 C-338.26050199 197.80038823 -344.76747707 141.0776277 -327.8125 89.375 C-319.73882853 65.90966021 -308.43014183 44.41471831 -293 25 C-292.40300293 24.22785156 -291.80600586 23.45570312 -291.19091797 22.66015625 C-279.84157621 8.13571788 -266.57931937 -5.08925581 -251 -15 C-249.85121254 -15.76706283 -248.70410173 -16.53664202 -247.55859375 -17.30859375 C-170.02519177 -69.07721702 -70.06236202 -59.25043514 0 0 Z " fill="#0B0B0B" transform="translate(385,99)"/>
<path d="M0 0 C16.10650646 0.41687428 31.94497857 7.87756361 44.85913086 17.11181641 C51.04426697 21.94955266 51.04426697 21.94955266 58.4375 23.3125 C59.96805566 22.91033131 61.48772552 22.46622546 63 22 C64.92637268 21.61715622 66.85331482 21.2364279 68.78540039 20.88354492 C70.77535727 20.51828937 72.75905044 20.11938375 74.7421875 19.71875 C85.49374297 17.77687834 96.41832984 17.6899735 107.3125 17.625 C108.1140451 17.61910858 108.91559021 17.61321716 109.74142456 17.60714722 C125.03096158 17.5466768 139.4418398 19.44861908 154.37915039 22.65454102 C158.68088103 23.22156001 161.22840658 22.04493615 164.80078125 19.7421875 C165.52338135 19.28457031 166.24598145 18.82695312 166.99047852 18.35546875 C167.75674561 17.86691406 168.5230127 17.37835938 169.3125 16.875 C183.32841887 8.12836235 197.26632653 0.90705894 214 0 C221.15992996 15.71013759 221.9685097 33.73334963 218.4375 50.5546875 C217.50478702 55.41504049 217.50478702 55.41504049 219.21484375 59.859375 C220.06755859 60.79523438 220.06755859 60.79523438 220.9375 61.75 C237.73573617 82.26979662 240.73523989 106.98082741 238.79785156 132.68164062 C237.09577763 148.44348753 232.47416116 164.1770302 223 177 C222.53722656 177.72832031 222.07445312 178.45664062 221.59765625 179.20703125 C211.50439549 194.06581035 192.16702648 204.91703154 175 209 C174.00129883 209.24943359 174.00129883 209.24943359 172.98242188 209.50390625 C164.24170716 211.6757954 156.06871586 213.58507844 147 213 C147.62648438 213.95261719 148.25296875 214.90523437 148.8984375 215.88671875 C149.72418849 217.15349584 150.54969652 218.42043132 151.375 219.6875 C151.7875 220.31333984 152.2 220.93917969 152.625 221.58398438 C153.02460938 222.19951172 153.42421875 222.81503906 153.8359375 223.44921875 C154.38580322 224.28972778 154.38580322 224.28972778 154.94677734 225.1472168 C157.61952079 229.84899009 158.25264607 233.64002334 158.27124023 239.05004883 C158.27646698 239.7401857 158.28169373 240.43032257 158.28707886 241.14137268 C158.29728551 242.633637 158.30309343 244.12593658 158.30496025 245.61823463 C158.30863867 247.98594712 158.3254063 250.35324623 158.34571838 252.72087097 C158.40098194 259.45031012 158.43175528 266.17980994 158.45629883 272.90942383 C158.4722394 277.03262127 158.50252676 281.15552537 158.54106331 285.27857018 C158.55265714 286.84330807 158.55864316 288.40809857 158.55874443 289.97287941 C158.22595009 302.99225284 158.22595009 302.99225284 163.97265625 314.2421875 C165.00712891 315.05042969 165.00712891 315.05042969 166.0625 315.875 C166.75472656 316.42929687 167.44695312 316.98359375 168.16015625 317.5546875 C168.76730469 318.03164063 169.37445313 318.50859375 170 319 C170.66 319.66 171.32 320.32 172 321 C132.99404015 333.42228021 83.0253217 338.0654241 44 322 C43.67 321.34 43.34 320.68 43 320 C43.60328125 319.62230469 44.2065625 319.24460937 44.828125 318.85546875 C45.62734375 318.30503906 46.4265625 317.75460937 47.25 317.1875 C48.03890625 316.66542969 48.8278125 316.14335937 49.640625 315.60546875 C56.95496458 307.52820964 56.6438863 296.62403673 56.75 286.3125 C56.77823211 284.91728193 56.80816932 283.52209729 56.83984375 282.12695312 C56.90992764 278.75124553 56.96293046 275.37620411 57 272 C56.01 272.33 55.02 272.66 54 273 C38.65677332 275.27203174 21.75521186 275.84131927 8.1875 267.25 C6.77114116 266.19364332 5.3751804 265.10943259 4 264 C3.24074219 263.42507813 2.48148438 262.85015625 1.69921875 262.2578125 C-6.37319415 255.7184797 -10.72286758 247.4159384 -14.5 237.875 C-19.35236024 225.78361372 -27.2723268 217.98546162 -38 211 C-39.9375 209.5625 -39.9375 209.5625 -41 208 C-40.875 205.4375 -40.875 205.4375 -40 203 C-35.61744731 200.07829821 -32.14255508 200.12410675 -27 201 C-16.53463685 205.08964795 -8.40393786 210.71751478 -1.625 219.6875 C-1.15022217 220.30036865 -0.67544434 220.9132373 -0.1862793 221.54467773 C1.97182536 224.3308196 4.10081887 227.13525788 6.20703125 229.9609375 C12.58962506 238.34517316 19.47700218 243.18226218 30 245 C39.19860142 245.6476463 47.99001242 244.87917804 57 243 C56.91878906 242.36835938 56.83757812 241.73671875 56.75390625 241.0859375 C55.98664908 230.21907069 61.10229466 221.14905897 68 213 C67.04222656 212.97421875 66.08445312 212.9484375 65.09765625 212.921875 C42.02942935 212.05685314 20.13810876 204.97885826 3 189 C2.38769531 188.54882812 1.77539062 188.09765625 1.14453125 187.6328125 C-13.0532669 177.17127702 -20.86519373 155.74920268 -23.5625 138.9921875 C-26.36767171 112.30856648 -24.89479979 84.76947522 -7.4375 63.0625 C-4.56844132 59.38091494 -3.49653855 57.31710538 -3.9375 52.625 C-4.24622452 51.07359441 -4.60039379 49.53051789 -5 48 C-8.87083663 32.73627541 -6.38932659 14.13884596 0 0 Z " fill="#FEFEFE" transform="translate(143,114)"/>
<path d="M0 0 C1.01835937 0.25394531 2.03671875 0.50789063 3.0859375 0.76953125 C10.74614599 2.64637842 18.41165875 4.35985527 26.1875 5.6875 C27.19852783 5.86599487 27.19852783 5.86599487 28.22998047 6.0480957 C57.41238869 10.8381549 88.97184268 9.45890292 117.2421875 0.63671875 C120.00167823 -0.00038747 121.38289168 0.02016476 124 1 C123.34 1.66 122.68 2.32 122 3 C122.99 3.495 122.99 3.495 124 4 C123.67 5.32 123.34 6.64 123 8 C106.43676082 13.48219888 88.4383045 16.57957966 71 17 C69.75814941 17.0306958 69.75814941 17.0306958 68.49121094 17.06201172 C43.75764904 17.58761077 19.50628032 15.06419836 -4 7 C-3.67 6.34 -3.34 5.68 -3 5 C-2.34 5 -1.68 5 -1 5 C-0.67 3.35 -0.34 1.7 0 0 Z " fill="#1A1A1A" transform="translate(189,436)"/>
<path d="M0 0 C-0.66 0.66 -1.32 1.32 -2 2 C-1.34 2.33 -0.68 2.66 0 3 C-0.2265625 4.890625 -0.2265625 4.890625 -1 7 C-7.39463606 10.52626021 -14.9116225 10.36385208 -22 10 C-22.33 8.02 -22.66 6.04 -23 4 C-19.92090233 3.13003414 -16.83621369 2.28184148 -13.75 1.4375 C-12.87730469 1.19064453 -12.00460937 0.94378906 -11.10546875 0.68945312 C-9.83896484 0.34624023 -9.83896484 0.34624023 -8.546875 -0.00390625 C-7.77182617 -0.21861572 -6.99677734 -0.4333252 -6.19824219 -0.65454102 C-3.80975982 -1.0298967 -2.279036 -0.74681558 0 0 Z " fill="#1A1A1A" transform="translate(313,437)"/>
<path d="M0 0 C0.93423645 3.01031744 1.04449911 3.86650268 0 7 C-2.64 7 -5.28 7 -8 7 C-8.33 5.02 -8.66 3.04 -9 1 C-5.92677456 0.08941469 -3.19902639 -0.08886184 0 0 Z " fill="#090909" transform="translate(299,440)"/>
<path d="M0 0 C0.66 0.33 1.32 0.66 2 1 C0.02 1.99 0.02 1.99 -2 3 C-1.34 2.01 -0.68 1.02 0 0 Z M-4 3 C-3.34 3.33 -2.68 3.66 -2 4 C-2.309375 4.598125 -2.61875 5.19625 -2.9375 5.8125 C-4.10209704 8.08956772 -4.10209704 8.08956772 -5 11 C-5.99 10.67 -6.98 10.34 -8 10 C-8.6875 7.9375 -8.6875 7.9375 -9 6 C-6.625 4.4375 -6.625 4.4375 -4 3 Z " fill="#161616" transform="translate(347,308)"/>
<path d="M0 0 C1.65 0 3.3 0 5 0 C3.55746343 3.36591866 1.66735273 5.51047079 -1 8 C-1.33 6.02 -1.66 4.04 -2 2 C-1.34 1.67 -0.68 1.34 0 1 C0 0.67 0 0.34 0 0 Z " fill="#111111" transform="translate(206,327)"/>
<path d="M0 0 C0.33 0 0.66 0 1 0 C1 2.64 1 5.28 1 8 C-0.65 7.67 -2.3 7.34 -4 7 C-2.68 4.69 -1.36 2.38 0 0 Z " fill="#282828" transform="translate(85,133)"/>
<path d="M0 0 C0 3.57575896 -1.08840607 5.05295935 -3 8 C-3.66 7.67 -4.32 7.34 -5 7 C-5 6.01 -5 5.02 -5 4 C-2.5 1.8125 -2.5 1.8125 0 0 Z " fill="#404040" transform="translate(135,83)"/>
<path d="" fill="#FFFFFF" transform="translate(0,0)"/>
<path d="" fill="#FFFFFF" transform="translate(0,0)"/>
<path d="" fill="#FFFFFF" transform="translate(0,0)"/>
<path d="" fill="#FFFFFF" transform="translate(0,0)"/>
<path d="" fill="#FFFFFF" transform="translate(0,0)"/>
<path d="" fill="#FFFFFF" transform="translate(0,0)"/>
<path d="" fill="#FFFFFF" transform="translate(0,0)"/>
<path d="" fill="#FFFFFF" transform="translate(0,0)"/>
<path d="" fill="#FFFFFF" transform="translate(0,0)"/>
<path d="" fill="#FFFFFF" transform="translate(0,0)"/>
<path d="" fill="#FFFFFF" transform="translate(0,0)"/>
<path d="" fill="#FFFFFF" transform="translate(0,0)"/>
<path d="" fill="#FFFFFF" transform="translate(0,0)"/>
<path d="" fill="#FFFFFF" transform="translate(0,0)"/>
<path d="" fill="#FFFFFF" transform="translate(0,0)"/>
<path d="" fill="#FFFFFF" transform="translate(0,0)"/>
<path d="" fill="#FFFFFF" transform="translate(0,0)"/>
<path d="" fill="#FFFFFF" transform="translate(0,0)"/>
<path d="" fill="#FFFFFF" transform="translate(0,0)"/>
<path d="" fill="#FFFFFF" transform="translate(0,0)"/>
<path d="" fill="#FFFFFF" transform="translate(0,0)"/>
<path d="" fill="#FFFFFF" transform="translate(0,0)"/>
<path d="" fill="#FFFFFF" transform="translate(0,0)"/>
<path d="" fill="#FFFFFF" transform="translate(0,0)"/>
</svg>
