<?xml version="1.0" encoding="UTF-8"?>
<svg version="1.1" xmlns="http://www.w3.org/2000/svg" width="512" height="471">
<path d="M0 0 C1.04285156 0.00128906 2.08570312 0.00257812 3.16015625 0.00390625 C6.35234652 0.50226507 6.92742104 1.01916659 8.9375 3.4375 C9.85717773 5.31591797 9.85717773 5.31591797 10.62109375 7.4296875 C10.90694336 8.21102051 11.19279297 8.99235352 11.48730469 9.79736328 C11.92671387 11.04235596 11.92671387 11.04235596 12.375 12.3125 C12.68211914 13.16440918 12.98923828 14.01631836 13.30566406 14.89404297 C15.40432082 20.77227638 17.33101782 26.68094554 19.109375 32.6640625 C19.83906475 35.10783478 20.61804075 37.52271052 21.4375 39.9375 C22.61008242 43.39737301 23.68948242 46.87921982 24.75 50.375 C26.86493459 57.26883615 29.13373844 64.104842 31.4375 70.9375 C34.92978862 81.29517513 38.29027844 91.68179566 41.3125 102.1875 C42.8980507 107.51599006 44.79336192 112.72861984 46.66650391 117.9609375 C48.6361041 123.49498571 50.41408439 129.06874189 52.078125 134.703125 C52.90231581 137.44692017 52.90231581 137.44692017 53.99609375 140.08203125 C54.9375 142.4375 54.9375 142.4375 55.75 145.875 C56.96784384 150.97651908 58.84001431 155.82776119 60.6328125 160.75 C62.27504007 165.39150546 63.7223729 170.07902427 65.140625 174.79296875 C65.71031204 176.68354782 66.31309368 178.56428104 66.9375 180.4375 C128.3175 180.7675 189.6975 181.0975 252.9375 181.4375 C254.4225 176.4875 254.4225 176.4875 255.9375 171.4375 C256.55981474 169.5104723 257.19180889 167.58650002 257.83984375 165.66796875 C258.17089111 164.68328613 258.50193848 163.69860352 258.84301758 162.68408203 C259.18357178 161.67458496 259.52412598 160.66508789 259.875 159.625 C262.94429002 150.47230035 265.95446562 141.31650063 268.62890625 132.0390625 C270.1920631 126.66180294 271.99158491 121.39658765 273.875 116.125 C276.71986187 108.16096189 279.29403096 100.139144 281.63671875 92.01171875 C283.19246443 86.66103275 284.9921012 81.42969437 286.875 76.1875 C288.71408433 71.05798216 290.42332189 65.94357593 291.875 60.6875 C293.95941875 53.16138147 296.43390486 45.78899336 298.9375 38.39453125 C300.41379134 34.0289056 301.84087822 29.64947669 303.25 25.26171875 C303.64421143 24.04637451 304.03842285 22.83103027 304.44458008 21.57885742 C305.21822044 19.1923329 305.98397828 16.80323545 306.7409668 14.41137695 C307.09843994 13.31656006 307.45591309 12.22174316 307.82421875 11.09375 C308.13576904 10.12244141 308.44731934 9.15113281 308.76831055 8.15039062 C310.09622942 5.06919737 311.64662116 2.8829797 313.9375 0.4375 C316.8125 -0.19140625 316.8125 -0.19140625 319.9375 -0.125 C320.96875 -0.12628906 322 -0.12757812 323.0625 -0.12890625 C326.65570005 0.57899322 327.75907978 1.51997292 329.9375 4.4375 C331.0625 7.28515625 331.0625 7.28515625 331.9375 10.5 C333.13968632 14.71234818 334.39598212 18.83682157 335.9375 22.9375 C337.84575691 28.06124492 339.45001002 33.25230644 341.0078125 38.4921875 C341.86437746 41.20584287 342.88070199 43.79771586 343.9375 46.4375 C344.3396875 48.1390625 344.3396875 48.1390625 344.75 49.875 C345.93876387 54.85470378 347.74358172 59.59259109 349.5234375 64.38671875 C351.13334032 68.85827703 352.47309749 73.41118073 353.85791016 77.95629883 C355.62312445 83.64833651 357.5335582 89.29065553 359.4375 94.9375 C362.03919901 102.65380185 364.54986992 110.38442466 366.92382812 118.17382812 C368.6689547 123.79253044 370.55783534 129.36265841 372.4375 134.9375 C375.09000276 142.80447917 377.66395552 150.68396448 380.07421875 158.62890625 C380.8271958 161.07863701 381.61511907 163.51037288 382.4375 165.9375 C383.60776581 169.39823259 384.68943838 172.87907466 385.75 176.375 C387.87094771 183.31702501 390.16257578 190.19737979 392.47265625 197.078125 C392.71387207 197.79677734 392.95508789 198.51542969 393.20361328 199.25585938 C393.69484256 200.71614707 394.18802295 202.1757798 394.68310547 203.63476562 C395.97396126 207.46114103 397.20507254 211.29457072 398.34765625 215.16796875 C400.54484251 222.57150007 403.06647279 229.86855083 405.53320312 237.18554688 C407.8175356 243.99200441 409.99894149 250.81651133 412.05200195 257.6965332 C412.79842819 260.00701773 413.64194084 262.12693589 414.6875 264.3125 C416.96695901 270.16144154 416.63872199 277.29837025 415.9375 283.4375 C412.95064653 289.96040258 407.44450949 293.96512596 401.625 297.875 C397.34655148 300.75998519 393.17620328 303.72713331 389.05932617 306.83813477 C385.31703743 309.65895327 381.53636811 312.42627598 377.75 315.1875 C376.96947266 315.76371094 376.18894531 316.33992188 375.38476562 316.93359375 C374.62486328 317.48660156 373.86496094 318.03960937 373.08203125 318.609375 C372.06653198 319.3533252 372.06653198 319.3533252 371.03051758 320.11230469 C368.9375 321.4375 368.9375 321.4375 366.2409668 322.42675781 C365.10075073 322.9270752 365.10075073 322.9270752 363.9375 323.4375 C363.6075 324.4275 363.2775 325.4175 362.9375 326.4375 C359.875 327.625 359.875 327.625 356.9375 328.4375 C356.9375 329.0975 356.9375 329.7575 356.9375 330.4375 C354.96646055 331.93981666 353.00128944 333.3235921 350.9375 334.6875 C349.73098052 335.50273783 348.52524826 336.31914197 347.3203125 337.13671875 C346.73411133 337.53294434 346.14791016 337.92916992 345.54394531 338.33740234 C342.95224875 340.11220245 340.45915864 342.0075026 337.9609375 343.91015625 C335.47647699 345.78549227 332.95804195 347.61097029 330.4375 349.4375 C326.55257287 352.25313184 322.69920788 355.10271196 318.88671875 358.015625 C317.31219514 359.16417529 315.69854111 360.25896524 314.07421875 361.3359375 C310.98918484 363.4028718 308.02439621 365.57340074 305.0625 367.8125 C303.61230469 368.90691406 303.61230469 368.90691406 302.1328125 370.0234375 C300.4496982 371.29496984 298.76673088 372.56669055 297.08447266 373.83935547 C292.13056341 377.57346407 287.11949524 381.2193718 282.0625 384.8125 C281.30453125 385.35777344 280.5465625 385.90304687 279.765625 386.46484375 C279.04117187 386.97917969 278.31671875 387.49351562 277.5703125 388.0234375 C276.91949707 388.4879834 276.26868164 388.9525293 275.59814453 389.43115234 C273.9375 390.4375 273.9375 390.4375 271.9375 390.4375 C271.9375 391.0975 271.9375 391.7575 271.9375 392.4375 C267.55288462 395.4375 267.55288462 395.4375 264.9375 395.4375 C264.9375 396.0975 264.9375 396.7575 264.9375 397.4375 C262.49177514 399.27404431 260.04282866 400.99500361 257.5 402.6875 C256.7687793 403.18258057 256.03755859 403.67766113 255.28417969 404.18774414 C251.44093921 406.78470098 247.56979023 409.33683042 243.6875 411.875 C240.74604038 413.81558489 238.39213205 415.89822546 235.9375 418.4375 C234.578493 419.36560234 233.21623087 420.28959458 231.83203125 421.1796875 C226.04039218 425.02485818 220.48963697 429.25626105 214.9375 433.4375 C202.53486587 442.77775533 202.53486587 442.77775533 196.5625 446.6875 C193.94977081 448.37242919 193.94977081 448.37242919 191.70703125 450.234375 C188.54575374 452.7491289 185.29217396 455.09860354 182 457.4375 C181.40509766 457.86289062 180.81019531 458.28828125 180.19726562 458.7265625 C178.44967926 459.97183716 176.69562715 461.20716052 174.9375 462.4375 C174.09227783 463.03304687 174.09227783 463.03304687 173.22998047 463.640625 C169.17377311 466.4375 169.17377311 466.4375 166.9375 466.4375 C166.6075 467.4275 166.2775 468.4175 165.9375 469.4375 C162.44881349 471.76329101 161.04031481 471.85615457 156.9375 471.4375 C154.5625 470.0625 154.5625 470.0625 152.9375 468.4375 C152.9375 467.7775 152.9375 467.1175 152.9375 466.4375 C151.638125 466.0971875 151.638125 466.0971875 150.3125 465.75 C147.14623275 464.51867385 145.20652869 463.15698889 142.6953125 460.921875 C140.57578695 459.13205342 138.34450171 457.57716326 136.0625 456 C132.42469212 453.48317588 128.8573978 450.90532481 125.33203125 448.234375 C121.39142557 445.27731364 117.40792769 442.37869149 113.43139648 439.47021484 C110.20576774 437.10870171 106.99280185 434.73494269 103.8125 432.3125 C97.27502881 427.38072349 90.48467446 422.72198004 83.6015625 418.2890625 C80.9375 416.4375 80.9375 416.4375 79.9375 414.4375 C77.96227154 413.38941959 75.96268491 412.3854589 73.9375 411.4375 C73.9375 410.7775 73.9375 410.1175 73.9375 409.4375 C73.08285156 409.03144531 73.08285156 409.03144531 72.2109375 408.6171875 C69.03767434 406.97058015 66.15568376 404.9644923 63.19921875 402.9609375 C61.81836887 402.03083137 60.42730973 401.11538394 59.01953125 400.2265625 C57.62635952 399.34631623 56.27617426 398.39859947 54.9375 397.4375 C54.9375 396.7775 54.9375 396.1175 54.9375 395.4375 C54.26332031 395.21578125 53.58914062 394.9940625 52.89453125 394.765625 C49.06653046 393.04631157 45.96387399 390.70600353 42.625 388.1875 C41.99916016 387.72214844 41.37332031 387.25679688 40.72851562 386.77734375 C38.13847773 384.84876169 35.55815399 382.90766421 32.98413086 380.95776367 C27.37241565 376.71864835 21.63107297 372.68284685 15.85351562 368.67382812 C15.13228516 368.16916016 14.41105469 367.66449219 13.66796875 367.14453125 C13.02239014 366.6956958 12.37681152 366.24686035 11.71166992 365.78442383 C9.9576822 364.45282203 8.48640331 362.99768174 6.9375 361.4375 C5.28561165 360.41327216 3.61629754 359.41699814 1.9375 358.4375 C-0.34823518 356.93422048 -2.6168507 355.41819456 -4.875 353.875 C-5.47248047 353.47603516 -6.06996094 353.07707031 -6.68554688 352.66601562 C-8.18153456 351.6419052 -9.62715592 350.54500561 -11.0625 349.4375 C-11.0625 348.7775 -11.0625 348.1175 -11.0625 347.4375 C-11.660625 347.31375 -12.25875 347.19 -12.875 347.0625 C-15.0625 346.4375 -15.0625 346.4375 -18.0625 344.4375 C-18.0625 343.7775 -18.0625 343.1175 -18.0625 342.4375 C-19.07376953 342.0971875 -19.07376953 342.0971875 -20.10546875 341.75 C-23.88188334 340.0738107 -27.03343585 337.84645459 -30.375 335.4375 C-31.02017578 334.98632812 -31.66535156 334.53515625 -32.33007812 334.0703125 C-33.94751255 332.91329063 -35.51043244 331.68083423 -37.0625 330.4375 C-37.0625 329.7775 -37.0625 329.1175 -37.0625 328.4375 C-38.42375 328.06625 -38.42375 328.06625 -39.8125 327.6875 C-43.20857416 326.38131763 -44.62166188 325.04667178 -47.0625 322.4375 C-48.0525 322.1075 -49.0425 321.7775 -50.0625 321.4375 C-50.0625 320.7775 -50.0625 320.1175 -50.0625 319.4375 C-50.78050781 319.18613281 -51.49851563 318.93476563 -52.23828125 318.67578125 C-55.32245299 317.32352338 -57.59256496 315.69189392 -60.25 313.625 C-66.25892725 309.01592197 -72.38217136 304.58947827 -78.56713867 300.21948242 C-93.5536388 289.5100845 -93.5536388 289.5100845 -96.0625 283.4375 C-97.59385067 272.73080659 -95.03603813 264.3485089 -91.0625 254.4375 C-90.37062628 252.32057294 -89.70342248 250.19540596 -89.0625 248.0625 C-88.58296875 246.47695313 -88.58296875 246.47695313 -88.09375 244.859375 C-87.7534375 243.73015625 -87.413125 242.6009375 -87.0625 241.4375 C-84.57038753 233.26435484 -82.00892769 225.14748041 -79.02734375 217.13671875 C-76.80237345 210.91220669 -74.99306467 204.54566134 -73.09765625 198.21484375 C-71.02685326 191.37038246 -68.72666057 184.64786917 -66.2890625 177.92578125 C-64.71526426 173.44997926 -63.33056471 168.92840257 -61.9609375 164.38671875 C-60.99338799 161.21063233 -59.94583776 158.06871682 -58.88037109 154.92456055 C-57.96086538 152.12843975 -57.10449518 149.3166693 -56.25 146.5 C-53.78485901 138.46463183 -51.10314913 130.5068655 -48.41796875 122.54296875 C-45.844628 114.87600508 -43.4106944 107.17621979 -41.0625 99.4375 C-38.56070188 91.26064211 -36.00579216 83.14156932 -33.0234375 75.125 C-31.60542332 71.15917171 -30.3932119 67.13733206 -29.17480469 63.10644531 C-25.48540743 50.93694092 -21.5579433 38.88235775 -17.375 26.875 C-16.64325682 24.77242074 -15.91229796 22.66958366 -15.18363953 20.56593323 C-14.53099009 18.68188435 -13.87557686 16.79879352 -13.2199707 14.91577148 C-12.42026898 12.51261803 -11.69099491 10.08529109 -11.02001953 7.64306641 C-9.1690056 1.44627577 -6.30028763 -0.11710572 0 0 Z " fill="#FFFFFF" transform="translate(96.0625,-0.4375)"/>
</svg>
