<?xml version="1.0" encoding="UTF-8"?>
<svg version="1.1" xmlns="http://www.w3.org/2000/svg" width="500" height="500">
<path d="M0 0 C165 0 330 0 500 0 C500 165 500 330 500 500 C335 500 170 500 0 500 C0 335 0 170 0 0 Z " fill="#0A0A0A" transform="translate(0,0)"/>
<path d="M0 0 C165 0 330 0 500 0 C500 165 500 330 500 500 C335 500 170 500 0 500 C0 335 0 170 0 0 Z M136 83 C135.00355469 83.70511719 134.00710937 84.41023438 132.98046875 85.13671875 C118.23470821 95.90131721 105.40879732 107.76371911 94 122 C93.32839844 122.804375 92.65679687 123.60875 91.96484375 124.4375 C86.34060852 131.23578036 81.57707452 138.47689712 77 146 C76.62198242 146.61617188 76.24396484 147.23234375 75.85449219 147.8671875 C59.60825872 174.61589641 48.97837797 207.47005247 48.796875 238.890625 C48.78628555 240.11831352 48.78628555 240.11831352 48.77548218 241.37080383 C48.49253799 266.3446488 48.49253799 266.3446488 52 291 C52.29801514 292.36318359 52.29801514 292.36318359 52.60205078 293.75390625 C59.17320407 323.01153557 71.77646238 350.17128304 90 374 C90.68835938 374.93070312 91.37671875 375.86140625 92.0859375 376.8203125 C108.08041221 397.49301302 128.54213699 413.90389541 151 427 C151.58894043 427.34869141 152.17788086 427.69738281 152.78466797 428.05664062 C190.69566324 450.27849608 236.80924453 457.52787159 280 451 C280.76489746 450.8870459 281.52979492 450.7740918 282.31787109 450.65771484 C327.17891812 443.69507156 371.77938532 420.15214971 401 385 C401.83015625 384.05769531 402.6603125 383.11539062 403.515625 382.14453125 C438.70755115 342.0241134 454.70226587 288.55886465 451.87548828 235.67041016 C448.81238771 191.30927637 430.84406881 148.88129705 401 116 C400.07476579 114.95509517 399.15029687 113.90951223 398.2265625 112.86328125 C364.50374169 74.99005025 314.45800813 51.66436984 264 48 C219.17342942 46.02623855 172.94113197 56.74861941 136 83 Z " fill="#F7F7F7" transform="translate(0,0)"/>
<path d="M0 0 C16.10650646 0.41687428 31.94497857 7.87756361 44.85913086 17.11181641 C51.04426697 21.94955266 51.04426697 21.94955266 58.4375 23.3125 C59.96805566 22.91033131 61.48772552 22.46622546 63 22 C64.92637268 21.61715622 66.85331482 21.2364279 68.78540039 20.88354492 C70.77535727 20.51828937 72.75905044 20.11938375 74.7421875 19.71875 C85.70190833 17.74397883 96.77648186 17.7619874 107.875 17.75 C108.69370575 17.74832825 109.5124115 17.74665649 110.35592651 17.74493408 C124.15879404 17.74324737 138.0514888 18.08070155 151.39453125 21.99609375 C156.31297161 23.34334675 158.77001314 23.64975084 163.38671875 21.2109375 C165.94244904 19.52134641 168.39311917 17.70460157 170.85546875 15.8828125 C175.26137172 12.6837858 179.94811299 10.35231191 184.875 8.0625 C185.647229 7.69793701 186.41945801 7.33337402 187.21508789 6.95776367 C194.25139214 3.72062616 201.26062314 0.80628967 209.0625 0.3125 C210.00222656 0.24675781 210.94195312 0.18101563 211.91015625 0.11328125 C212.59980469 0.07589844 213.28945313 0.03851563 214 0 C221.15992996 15.71013759 221.9685097 33.73334963 218.4375 50.5546875 C217.50478702 55.41504049 217.50478702 55.41504049 219.21484375 59.859375 C220.06755859 60.79523438 220.06755859 60.79523438 220.9375 61.75 C237.73573617 82.26979662 240.73523989 106.98082741 238.79785156 132.68164062 C237.09577763 148.44348753 232.47416116 164.1770302 223 177 C222.53722656 177.72832031 222.07445312 178.45664062 221.59765625 179.20703125 C211.50439549 194.06581035 192.16702648 204.91703154 175 209 C174.00129883 209.24943359 174.00129883 209.24943359 172.98242188 209.50390625 C164.24170716 211.6757954 156.06871586 213.58507844 147 213 C147.62648438 213.95261719 148.25296875 214.90523437 148.8984375 215.88671875 C149.72418849 217.15349584 150.54969652 218.42043132 151.375 219.6875 C151.7875 220.31333984 152.2 220.93917969 152.625 221.58398438 C153.02460938 222.19951172 153.42421875 222.81503906 153.8359375 223.44921875 C154.38580322 224.28972778 154.38580322 224.28972778 154.94677734 225.1472168 C157.61952079 229.84899009 158.25264607 233.64002334 158.27124023 239.05004883 C158.27646698 239.7401857 158.28169373 240.43032257 158.28707886 241.14137268 C158.29728551 242.633637 158.30309343 244.12593658 158.30496025 245.61823463 C158.30863867 247.98594712 158.3254063 250.35324623 158.34571838 252.72087097 C158.40098194 259.45031012 158.43175528 266.17980994 158.45629883 272.90942383 C158.4722394 277.03262127 158.50252676 281.15552537 158.54106331 285.27857018 C158.55265714 286.84330807 158.55864316 288.40809857 158.55874443 289.97287941 C158.22595009 302.99225284 158.22595009 302.99225284 163.97265625 314.2421875 C165.00712891 315.05042969 165.00712891 315.05042969 166.0625 315.875 C166.75472656 316.42929687 167.44695312 316.98359375 168.16015625 317.5546875 C168.76730469 318.03164063 169.37445313 318.50859375 170 319 C170.66 319.66 171.32 320.32 172 321 C132.09159789 333.7096822 83.90252886 337.6102889 44 322 C43.67 321.34 43.34 320.68 43 320 C43.60328125 319.62230469 44.2065625 319.24460937 44.828125 318.85546875 C45.62734375 318.30503906 46.4265625 317.75460937 47.25 317.1875 C48.03890625 316.66542969 48.8278125 316.14335937 49.640625 315.60546875 C56.95496458 307.52820964 56.6438863 296.62403673 56.75 286.3125 C56.77823211 284.91728193 56.80816932 283.52209729 56.83984375 282.12695312 C56.90992764 278.75124553 56.96293046 275.37620411 57 272 C56.39124023 272.14002441 55.78248047 272.28004883 55.15527344 272.42431641 C39.61112784 275.79609022 22.0611705 275.97467939 8.1875 267.25 C6.77114116 266.19364332 5.3751804 265.10943259 4 264 C3.24074219 263.42507813 2.48148438 262.85015625 1.69921875 262.2578125 C-6.37319415 255.7184797 -10.72286758 247.4159384 -14.5 237.875 C-19.35236024 225.78361372 -27.2723268 217.98546162 -38 211 C-39.9375 209.5625 -39.9375 209.5625 -41 208 C-40.875 205.4375 -40.875 205.4375 -40 203 C-35.61744731 200.07829821 -32.14255508 200.12410675 -27 201 C-16.53463685 205.08964795 -8.40393786 210.71751478 -1.625 219.6875 C-1.15022217 220.30036865 -0.67544434 220.9132373 -0.1862793 221.54467773 C1.97182536 224.3308196 4.10081887 227.13525788 6.20703125 229.9609375 C12.58962506 238.34517316 19.47700218 243.18226218 30 245 C39.19860142 245.6476463 47.99001242 244.87917804 57 243 C56.91878906 242.36835938 56.83757812 241.73671875 56.75390625 241.0859375 C55.98664908 230.21907069 61.10229466 221.14905897 68 213 C67.04222656 212.97421875 66.08445312 212.9484375 65.09765625 212.921875 C42.02942935 212.05685314 20.13810876 204.97885826 3 189 C2.38769531 188.54882812 1.77539062 188.09765625 1.14453125 187.6328125 C-13.0532669 177.17127702 -20.86519373 155.74920268 -23.5625 138.9921875 C-26.36767171 112.30856648 -24.89479979 84.76947522 -7.4375 63.0625 C-4.56844132 59.38091494 -3.49653855 57.31710538 -3.9375 52.625 C-4.24622452 51.07359441 -4.60039379 49.53051789 -5 48 C-8.87083663 32.73627541 -6.38932659 14.13884596 0 0 Z " fill="#FEFEFE" transform="translate(143,114)"/>
<path d="M0 0 C0.96035156 0.24234375 1.92070312 0.4846875 2.91015625 0.734375 C6.73320214 1.68132432 10.56957518 2.56034347 14.41357422 3.41796875 C16.08955973 3.79512086 17.76328644 4.18251503 19.43408203 4.58203125 C50.70937985 11.92769736 86.64562334 10.18483448 117.2421875 0.63671875 C120.00167823 -0.00038747 121.38289168 0.02016476 124 1 C123.34 1.66 122.68 2.32 122 3 C121.50371094 3.97453125 121.00742187 4.9490625 120.49609375 5.953125 C116.94628281 10.28622755 113.40700489 10.70016139 108.0625 11.75 C106.64723022 12.05502441 106.64723022 12.05502441 105.20336914 12.36621094 C68.1656295 20.19166607 33.10002942 17.62065929 -3 7 C-3 6.34 -3 5.68 -3 5 C-2.34 5 -1.68 5 -1 5 C-0.67 3.35 -0.34 1.7 0 0 Z " fill="#101010" transform="translate(189,436)"/>
<path d="M0 0 C-0.33 0.99 -0.66 1.98 -1 3 C-0.34 3.33 0.32 3.66 1 4 C0.67 4.99 0.34 5.98 0 7 C-1.98 7 -3.96 7 -6 7 C-6 6.34 -6 5.68 -6 5 C-7.45833358 3.37485532 -7.45833358 3.37485532 -9 2 C-5.86501708 0.14223235 -3.62528568 -0.20140476 0 0 Z " fill="#080808" transform="translate(299,440)"/>
<path d="M0 0 C0.66 0.33 1.32 0.66 2 1 C0.02 1.99 0.02 1.99 -2 3 C-1.34 2.01 -0.68 1.02 0 0 Z M-4 3 C-3.34 3.33 -2.68 3.66 -2 4 C-2.309375 4.598125 -2.61875 5.19625 -2.9375 5.8125 C-4.10209704 8.08956772 -4.10209704 8.08956772 -5 11 C-5.99 10.67 -6.98 10.34 -8 10 C-8.6875 7.9375 -8.6875 7.9375 -9 6 C-6.625 4.4375 -6.625 4.4375 -4 3 Z " fill="#161616" transform="translate(347,308)"/>
<path d="M0 0 C1.65 0 3.3 0 5 0 C3.55746343 3.36591866 1.66735273 5.51047079 -1 8 C-1.33 6.02 -1.66 4.04 -2 2 C-1.34 1.67 -0.68 1.34 0 1 C0 0.67 0 0.34 0 0 Z " fill="#111111" transform="translate(206,327)"/>
<path d="M0 0 C0.33 0 0.66 0 1 0 C1 2.31 1 4.62 1 7 C-0.98 7.33 -2.96 7.66 -5 8 C-1.125 1.125 -1.125 1.125 0 0 Z " fill="#191919" transform="translate(85,134)"/>
</svg>
